<svg width="1303" height="202" viewBox="0 0 1303 202" fill="none" xmlns="http://www.w3.org/2000/svg">
<path d="M1264.62 188.46C1260.37 184.39 1258.25 179.32 1258.25 173.26C1258.25 167.2 1260.37 162.13 1264.62 158.06C1268.86 153.99 1274.28 151.96 1280.86 151.96C1287.44 151.96 1292.55 154 1296.71 158.06C1300.87 162.13 1302.94 167.2 1302.94 173.26C1302.94 179.32 1300.86 184.39 1296.71 188.46C1292.55 192.53 1287.26 194.57 1280.86 194.57C1274.46 194.57 1268.86 192.54 1264.62 188.46Z" fill="#FF8F6B"/>
<path d="M194.68 188.27C185.33 184.03 177.92 178.27 172.46 170.99C167 163.71 164.02 155.66 163.49 146.82H200.13C200.82 152.37 203.55 156.95 208.31 160.59C213.07 164.23 219.01 166.05 226.11 166.05C233.21 166.05 238.45 164.66 242.35 161.89C246.25 159.12 248.2 155.57 248.2 151.24C248.2 146.56 245.81 143.05 241.05 140.72C236.29 138.38 228.71 135.83 218.31 133.05C207.57 130.45 198.78 127.77 191.94 124.99C185.09 122.22 179.21 117.97 174.27 112.26C169.33 106.55 166.87 98.8402 166.87 89.1302C166.87 81.1602 169.16 73.8902 173.76 67.3002C178.35 60.7202 184.93 55.5202 193.51 51.7102C202.08 47.9002 212.18 45.9902 223.78 45.9902C240.93 45.9902 254.62 50.2803 264.84 58.8503C275.06 67.4202 280.69 78.9903 281.73 93.5403H246.91C246.39 87.8203 244.01 83.2802 239.77 79.9002C235.52 76.5202 229.85 74.8302 222.75 74.8302C216.17 74.8302 211.1 76.0402 207.55 78.4702C204 80.9002 202.22 84.2803 202.22 88.6003C202.22 93.4503 204.64 97.1303 209.49 99.6403C214.34 102.15 221.87 104.71 232.1 107.31C242.49 109.91 251.07 112.6 257.82 115.37C264.58 118.14 270.42 122.43 275.36 128.23C280.3 134.04 282.85 141.7 283.03 151.23C283.03 159.55 280.73 166.99 276.14 173.58C271.55 180.17 264.97 185.32 256.39 189.04C247.81 192.76 237.81 194.63 226.38 194.63C214.95 194.63 204.03 192.51 194.68 188.26V188.27Z" fill="#5755FF"/>
<path d="M448.811 48.3496V192.31H412.171V174.12C407.491 180.36 401.391 185.25 393.851 188.8C386.311 192.35 378.131 194.13 369.291 194.13C358.031 194.13 348.071 191.75 339.411 186.98C330.751 182.22 323.951 175.2 319.011 165.93C314.071 156.66 311.611 145.62 311.611 132.8V48.3496H347.991V127.6C347.991 139.03 350.851 147.83 356.561 153.97C362.281 160.12 370.071 163.2 379.941 163.2C389.811 163.2 397.871 160.13 403.591 153.97C409.311 147.82 412.161 139.03 412.161 127.6V48.3496H448.801H448.811Z" fill="#5755FF"/>
<path d="M540.41 52.5C548.64 48.17 558.04 46 568.6 46C580.9 46 592.03 49.03 601.99 55.09C611.95 61.16 619.83 69.77 625.64 80.95C631.44 92.12 634.35 105.07 634.35 119.8C634.35 134.53 631.45 147.56 625.64 158.91C619.83 170.26 611.95 179.05 601.99 185.28C592.03 191.52 580.9 194.63 568.6 194.63C557.86 194.63 548.46 192.51 540.41 188.26C532.35 184.02 525.9 178.52 521.05 171.76V192.29H484.67V0H521.05V69.38C525.73 62.45 532.18 56.82 540.41 52.49V52.5ZM591.85 97.33C588.3 91.01 583.62 86.2 577.82 82.91C572.01 79.62 565.73 77.97 558.98 77.97C552.23 77.97 546.2 79.66 540.4 83.04C534.6 86.42 529.91 91.31 526.37 97.72C522.82 104.13 521.04 111.67 521.04 120.33C521.04 128.99 522.82 136.53 526.37 142.94C529.92 149.35 534.6 154.24 540.4 157.62C546.2 161 552.39 162.69 558.98 162.69C565.57 162.69 572.01 160.96 577.82 157.49C583.62 154.03 588.3 149.09 591.85 142.68C595.4 136.27 597.18 128.65 597.18 119.81C597.18 110.97 595.4 103.66 591.85 97.33Z" fill="#5755FF"/>
<path d="M782.19 62.5098C792.76 73.3398 798.04 88.4498 798.04 107.85V192.3H761.66V112.79C761.66 101.36 758.8 92.5698 753.09 86.4198C747.37 80.2698 739.58 77.1898 729.7 77.1898C719.82 77.1898 711.73 80.2698 705.92 86.4198C700.12 92.5698 697.21 101.36 697.21 112.79V192.3H660.83V48.3398H697.21V66.2697C702.06 60.0297 708.26 55.1398 715.79 51.5898C723.33 48.0398 731.59 46.2598 740.61 46.2598C757.76 46.2598 771.62 51.6798 782.18 62.4998L782.19 62.5098Z" fill="#5755FF"/>
<path d="M859.1 185.42C848.01 179.27 839.31 170.57 832.99 159.31C826.66 148.05 823.51 135.06 823.51 120.33C823.51 105.6 826.76 92.6198 833.25 81.3498C839.75 70.0898 848.62 61.3897 859.88 55.2397C871.14 49.0897 883.69 46.0098 897.56 46.0098C911.43 46.0098 923.98 49.0897 935.24 55.2397C946.5 61.3897 955.38 70.0998 961.87 81.3498C968.37 92.6098 971.61 105.6 971.61 120.33C971.61 135.06 968.27 148.05 961.6 159.31C954.93 170.57 945.92 179.28 934.57 185.42C923.22 191.57 910.54 194.65 896.5 194.65C882.46 194.65 870.17 191.58 859.08 185.42H859.1ZM915.1 158.13C920.9 154.93 925.54 150.12 929 143.71C932.46 137.3 934.2 129.51 934.2 120.32C934.2 106.64 930.6 96.1098 923.42 88.7498C916.23 81.3898 907.44 77.7097 897.05 77.7097C886.66 77.7097 877.95 81.3898 870.93 88.7498C863.91 96.1098 860.41 106.64 860.41 120.32C860.41 134 863.83 144.53 870.67 151.89C877.51 159.25 886.13 162.93 896.53 162.93C903.11 162.93 909.31 161.33 915.11 158.12L915.1 158.13Z" fill="#5755FF"/>
<path d="M1040.73 78.23V147.87C1040.73 152.72 1041.9 156.23 1044.24 158.39C1046.58 160.56 1050.52 161.64 1056.06 161.64H1072.95V192.3H1050.08C1019.42 192.3 1004.09 177.4 1004.09 147.61V78.23H986.941V48.35H1004.09V12.75H1040.73V48.35H1072.95V78.23H1040.73Z" fill="#5755FF"/>
<path d="M1125.7 185.42C1114.61 179.27 1105.91 170.57 1099.59 159.31C1093.26 148.05 1090.11 135.06 1090.11 120.33C1090.11 105.6 1093.36 92.6198 1099.85 81.3498C1106.35 70.0898 1115.22 61.3897 1126.48 55.2397C1137.74 49.0897 1150.29 46.0098 1164.16 46.0098C1178.03 46.0098 1190.58 49.0897 1201.84 55.2397C1213.1 61.3897 1221.98 70.0998 1228.47 81.3498C1234.97 92.6098 1238.21 105.6 1238.21 120.33C1238.21 135.06 1234.87 148.05 1228.2 159.31C1221.53 170.57 1212.52 179.28 1201.17 185.42C1189.82 191.57 1177.14 194.65 1163.1 194.65C1149.06 194.65 1136.77 191.58 1125.68 185.42H1125.7ZM1181.7 158.13C1187.5 154.93 1192.14 150.12 1195.6 143.71C1199.06 137.3 1200.8 129.51 1200.8 120.32C1200.8 106.64 1197.2 96.1098 1190.02 88.7498C1182.83 81.3898 1174.04 77.7097 1163.65 77.7097C1153.26 77.7097 1144.55 81.3898 1137.53 88.7498C1130.51 96.1098 1127.01 106.64 1127.01 120.32C1127.01 134 1130.43 144.53 1137.27 151.89C1144.11 159.25 1152.73 162.93 1163.13 162.93C1169.71 162.93 1175.91 161.33 1181.71 158.12L1181.7 158.13Z" fill="#5755FF"/>
<path d="M138.501 197.01L138.751 196.91C138.471 196.17 137.851 194.64 136.841 192.6C132.111 181.33 120.071 158.47 109.381 140.25C84.8506 98.46 55.3006 57.66 21.5706 18.98C20.8406 18.14 19.7506 17.67 18.6506 17.75C17.5406 17.81 16.5206 18.38 15.8806 19.29C7.16058 31.83 -2.54942 51.48 0.70058 73.9C6.54058 114.15 50.6206 136.03 65.1006 143.22C68.2406 144.78 71.4606 146.23 74.7306 147.57C71.1306 148 67.4906 148.09 63.8306 147.84C56.3106 147.31 49.0606 145.34 42.2906 141.97C40.7306 141.19 38.8206 141.65 37.7906 143.05C36.7506 144.46 36.8606 146.41 38.0606 147.68C46.7106 156.85 56.1206 162.46 66.0306 164.36C71.4506 165.39 75.7506 165.15 79.9206 164.92C85.0206 164.63 89.8206 164.36 96.9406 166.37C104.831 168.6 110.171 172.48 112.451 174.14C123.201 181.96 128.971 192.74 131.091 197.38C131.631 198.62 131.931 199.34 132.001 199.52C132.371 200.46 133.141 201.28 134.081 201.64C134.501 201.81 134.941 201.89 135.391 201.89C135.941 201.89 136.481 201.77 136.981 201.52C137.891 201.08 138.561 200.27 138.851 199.31C138.961 198.93 138.831 198.15 138.481 197.03L138.501 197.01Z" fill="#5755FF"/>
<path d="M68.6406 48.4897C89.1106 41.8597 94.4906 36.4798 101.121 16.0098C107.751 36.4798 113.131 41.8597 133.601 48.4897C113.131 55.1197 107.751 60.4998 101.121 80.9698C94.4906 60.4998 89.1106 55.1197 68.6406 48.4897Z" fill="#FF8F6B"/>
</svg>
